{"title":"Think Like A Man Too - 2014 (No Cinavia) 1080p","uid":11160804,"size":3676460639,"categoryP":"video","categoryS":"hd___movies","magnet":"?xt=urn:btih:b4fd2d0694530ab625dc08347bc366f5758cd8a5&amp;dn=Think+Like+A+Man+Too+-+2014+%28No+Cinavia%29+1080p&amp;tr=udp%3A%2F%2Ftracker.openbittorrent.com%3A80&amp;tr=udp%3A%2F%2Fopen.demonii.com%3A1337&amp;tr=udp%3A%2F%2Ftracker.coppersurfer.tk%3A6969&amp;tr=udp%3A%2F%2Fexodus.desync.com%3A6969","seeders":2,"leechers":0,"uploader":"AlienMethod","files":-1,"time":1412536370,"description":"MP4/x264 (ps3-friendly)\nCinavia Removed/CinExHD\n2-Channel AAC@192kbps (audio 1)\n6-Channel AC3@448kbps (audio 2)\n\n&quot;All the couples are back for a wedding in Las Vegas, but plans for a romantic weekend go awry when their various misadventures get them into some compromising situations that threaten to derail the big event.&quot;\n\nVideo\nID : 1\nFormat : AVC\nFormat/Info : Advanced Video Codec\nFormat profile : &lt;a class=&quot;__cf_email__&quot; href=&quot;/cdn-cgi/l/email-protection&quot; data-cfemail=&quot;96defff1fed6daa2b8a7&quot;&gt;[email&amp;#160;protected]&lt;/a&gt;&lt;script cf-hash='f9e31' type=&quot;text/javascript&quot;&gt;\n/* &lt;![CDATA[ */!function(){try{var t=&quot;currentScript&quot;in document?document.currentScript:function(){for(var t=document.getElementsByTagName(&quot;script&quot;),e=t.length;e--;)if(t[e].getAttribute(&quot;cf-hash&quot;))return t[e]}();if(t&amp;&amp;t.previousSibling){var e,r,n,i,c=t.previousSibling,a=c.getAttribute(&quot;data-cfemail&quot;);if(a){for(e=&quot;&quot;,r=parseInt(a.substr(0,2),16),n=2;a.length-n;n+=2)i=parseInt(a.substr(n,2),16)^r,e+=String.fromCharCode(i);e=document.createTextNode(e),c.parentNode.replaceChild(e,c)}}}catch(u){}}();/* ]]&gt; */&lt;/script&gt;\nFormat settings, CABAC : Yes\nFormat settings, ReFrames : 2 frames\nCodec ID : avc1\nCodec ID/Info : Advanced Video Coding\nDuration : 1h 45mn\nBit rate : 3 967 Kbps\nMaximum bit rate : 18.0 Mbps\nWidth : 1 920 pixels\nHeight : 1 080 pixels\nDisplay aspect ratio : 16:9\nFrame rate mode : Constant\nFrame rate : 23.976 fps\nColor space : YUV\nChroma subsampling : 4:2:0\nBit depth : 8 bits\nScan type : Progressive\nBits/(Pixel*Frame) : 0.080\nStream size : 2.93 GiB (86%)\nTitle : Think Like a Man Too (CinEx).h264\nWriting library : x264 core\nEncoded date : UTC 2014-10-05 14:31:08\nTagged date : UTC 2014-10-05 14:31:25\nColor primaries : BT.709\nTransfer characteristics : BT.709\nMatrix coefficients : BT.709\n\nAudio #1\nID : 2\nFormat : AAC\nFormat/Info : Advanced Audio Codec\nFormat profile : LC\nCodec ID : 40\nDuration : 1h 45mn\nBit rate mode : Variable\nBit rate : 212 Kbps\nMaximum bit rate : 258 Kbps\nChannel(s) : 2 channels\nChannel positions : Front: L R\nSampling rate : 48.0 KHz\nCompression mode : Lossy\nStream size : 161 MiB (5%)\nTitle : Think Like a Man Too (CinEx) AAC.m4a\nEncoded date : UTC 2014-10-05 14:31:21\nTagged date : UTC 2014-10-05 14:31:25\n\nAudio #2\nID : 3\nFormat : AC-3\nFormat/Info : Audio Coding 3\nMode extension : CM (complete main)\nFormat settings, Endianness : Big\nCodec ID : ac-3\nDuration : 1h 45mn\nBit rate mode : Constant\nBit rate : 448 Kbps\nChannel(s) : 6 channels\nChannel positions : Front: L C R, Side: L R, LFE\nSampling rate : 48.0 KHz\nBit depth : 16 bits\nCompression mode : Lossy\nStream size : 339 MiB (10%)\nTitle : Think Like a Man Too (CinEx) AC3.ac3\nEncoded date : UTC 2014-10-05 14:31:23\nTagged date : UTC 2014-10-05 14:31:25\n\nm/ AM m/","torrent":{"xt":"urn:btih:b4fd2d0694530ab625dc08347bc366f5758cd8a5","amp;dn":"Think+Like+A+Man+Too+-+2014+%28No+Cinavia%29+1080p","amp;tr":["udp%3A%2F%2Ftracker.openbittorrent.com%3A80","udp%3A%2F%2Fopen.demonii.com%3A1337","udp%3A%2F%2Ftracker.coppersurfer.tk%3A6969","udp%3A%2F%2Fexodus.desync.com%3A6969"],"infoHash":"b4fd2d0694530ab625dc08347bc366f5758cd8a5","infoHashBuffer":{"type":"Buffer","data":[180,253,45,6,148,83,10,182,37,220,8,52,123,195,102,245,117,140,216,165]},"announce":[],"urlList":[]}}